# xmcd
#
# Track frame offsets:
#	150
#	25818
#	51522
#	72798
#	95875
#	123426
#	152869
#	185012
#
# Disc length: 3348
#
# Revision: 1
# Processed by: cddbd v1.5.1PL0 Copyright (c) Steve Scherf et al.
# Submitted via: CDex 1.51
# Normalized: r0:DSETVAR1,TDELIM( - )
#
DISCID=720d1208
DTITLE=Various Artist - Festival De Salsa En New York 1991
DYEAR=2002
DGENRE=Salsa
TTITLE0=Hermanos Moreno - Dale Jamón
TTITLE1=Grupo Niche - Cali Aji
TTITLE2=Grupo Niche - Sin Sentimientos
TTITLE3=Richie Ray and Bobby Cruz - Jala-Jala
TTITLE4=Richie Ray and Bobby Cruz - Sonido Bestial
TTITLE5=Oscar D'León - Medley
TTITLE6=El Gran Combo - Medley
TTITLE7=Orquesta De La Luz - Medley
EXTD=YEAR: 2002
EXTT0=
EXTT1=
EXTT2=
EXTT3=
EXTT4=
EXTT5=
EXTT6=
EXTT7=
PLAYORDER=
